<?xml version="1.0" encoding="utf-8"?>
<!-- Generator: Adobe Illustrator 27.2.0, SVG Export Plug-In . SVG Version: 6.00 Build 0)  -->
<svg version="1.1" id="Layer_1" xmlns="http://www.w3.org/2000/svg" xmlns:xlink="http://www.w3.org/1999/xlink" x="0px" y="0px"
	 viewBox="0 20 700 420" style="enable-background:new 0 0 612 792;" xml:space="preserve">
<style type="text/css">
	.st0{fill:#010101;}
	.st1{font-family:'CormorantGaramond-Light';}
	.st2{font-size:80px}
	.st3{fill:url(#SVGID_1_);}
	.st4{fill:url(#SVGID_00000018221803866316369520000005315709466918311835_);}
	.st5{fill:none;stroke:#FFFFFF;stroke-width:2;stroke-linecap:round;stroke-linejoin:round;stroke-miterlimit:10;}
	.st6{fill:#FFFFFF;}
	.st7{fill:url(#SVGID_00000033332544621244570750000009006258772544443320_);}
</style>
<!-- <g>
	<g>
		<text transform="matrix(1 0 0 1 20.5347 520.9121)" class="st0 st1 st2">CHESS</text>
	</g>
	<text transform="matrix(1 0 0 1 290.5171 520.9121)" class="st0 st1 st2">AUDACITY</text>
</g> -->
<g>
	<path class="st0" d="M296.3,116.4l10.3,5c0,0-3.1,1.9-4.7,1.8C300.2,123,297.9,119.7,296.3,116.4z"/>
	<linearGradient id="SVGID_1_" gradientUnits="userSpaceOnUse" x1="687.6516" y1="640.9634" x2="128.6102" y2="-25.0087">
		<stop  offset="0" style="stop-color:#671111"/>
		<stop  offset="0.1997" style="stop-color:#641312"/>
		<stop  offset="0.417" style="stop-color:#591714"/>
		<stop  offset="0.6424" style="stop-color:#481B17"/>
		<stop  offset="0.872" style="stop-color:#311B1A"/>
		<stop  offset="1" style="stop-color:#20181A"/>
	</linearGradient>
	<path class="st3" d="M395.4,160.5c-9.8-11.4-16.3-25.8-17.8-41.6c-0.6-6.4-1.7-12.9-3.9-18.9c-2.8-7.5-6.5-14.7-10.7-21.5
		c-3.1-5.1-1.8-8.1,2.6-10.6c5.4-3.1,10.8-6,16.2-8.9c-25.7-33.8-101-38.8-128.5-16.1c0,0,0,0.1,0,0.1c5,1.4,9.6,2.7,14.3,4
		c-0.3,1.4-0.2,0.9-0.4,2.3c-21.5-2-39.2,3-47.8,25.8c0,0,0,0,0.1,0.1l27.4,0c0,0.1,0,0.1,0.1,0.1c-2.2,2.3-4.4,3.9-6.9,4.4
		c-6.4,1.2-13.1,1.2-19.4,2.9c-4.1,1.1-9.4,3.5-11,6.8c-3.2,6.5-4.2,14.1-6.5,22.5c0,0,0,0,0.1,0.1c11.5-3,21.4-5.6,32.1-8.5
		c0.1,0,0.1,0,0.1,0.1c-4,7.2-10.5,9.3-17.2,11c-18.1,4.9-24,17.4-16.4,35.5c0,0,0.1,0,0.1,0c7.9-5.1,15.8-10.2,24.6-15.8
		c0.1,0,0.1,0,0.1,0.1c-1.3,3-1.8,5.9-3.4,7.5c-3.8,3.7-8,6.9-12.3,10c-5.6,4-10.4,8.6-9.2,16.1c0.9,6.1,2.8,12.1,4.5,19.2
		c0,0,0.1,0,0.1,0c7.7-6.4,14.4-11.9,21.3-17.6c0.1,0,0.1,0,0.1,0.1c0.3,7.2-4.4,11.5-9.3,15.4c-6.8,5.5-10.7,12.1-9.1,20.9
		c1.3,7.1,3.4,14,5.5,22.8c0.1,0,0.1,0,0.1,0c7.3-9.3,13.5-17.1,20-25.3c0.1,0,0.1,0,0.1,0c0.5,7.7-3.8,12.9-8.3,17.8
		c-4.6,5.2-9.7,10.6-8.3,17.8c2.7,13.2,6.5,26.1,9.9,39.1c1.4,0,1.3,0,2.7,0c2.9-10.5,5.8-21,8.8-31.5c0.1,0,0.1,0,0.1,0
		c4.3,18.8-3,35.3-10.4,52.4c3.9,3,8.6,5.5,11.6,9.4c2.7,3.4,5.7,8.7,5,12.4c-2.4,12,0.8,16.8,13.2,16.9c22.1,0.1,44.3,0,66.4,0
		c11.4,0,22.9,0.2,34.3-0.1c8.3-0.2,14.3-6.7,11.4-13.1c-5-11.1,0.4-18.5,8.4-23.4c8.2-5,8.3-11.1,7.4-19
		c-2.3-19.6-13.6-34-26.8-47.2C349,224,337,213.3,326,201.6c-7.8-8.2-14.1-17.6-15.7-30c0-0.1,0.1-0.1,0.1-0.1
		c17.3,12.4,19.3,13.8,27.6,14.2c9.5,0.5,16.1,5.1,19.9,13.5c2.6,5.6,5.5,9.5,12.3,7.9c0.4-0.1,0.6-0.4,0.6-0.8v-10.6
		c0-0.8,1.1-1,1.4-0.3l4.3,10.5c0.3,0.7,0.8,1.2,1.5,1.3c0.6,0.1,1.2,0.3,1.8,0.4c13.9,2.8,13.3,2.4,19.7-10
		C406.6,184,406.2,173.2,395.4,160.5z M284.8,130.6c-0.8,1.3-1.7,2.6-3,3.8c-12.3,12.6-12.3,28.9-9.7,45.2c1,6.2,2.9,12.3,4.7,19.3
		c0,0.1-0.1,0.1-0.1,0.1c-16-21.4-15-53.1,0-73.7C280.2,120.5,287.8,125.4,284.8,130.6z M343.1,232.9c10.8,11.5,19.8,24.1,21.3,40.5
		c0.4,4.2-0.2,8.7-1,12.9c-0.3,1.6-2.6,3.4-4.3,3.8c-0.9,0.2-3.1-2.2-3.6-3.7c-0.8-2.7-1-5.7-0.8-8.6c0.7-11.4-2.6-21.8-9.5-30.6
		c-11.8-15.1-24.5-29.5-36.2-44.7c-5.2-6.8-9-14.6-13.3-22.1c-0.3-0.6-0.2-1.3,0.4-1.7l0,0c0.6-0.4,1.5-0.2,1.8,0.5
		C308.6,200.7,327,215.8,343.1,232.9z M370,123.7c-8.8,6.3-13,4.5-20.2-9.7c0-0.1,0-0.1,0.1-0.1c6.6,3.2,13.3,6.4,20.1,9.6
		C370,123.6,370,123.7,370,123.7z M387.6,193.6c-1.9,0-3.4-1.5-3.4-3.4c0-1.9,1.5-3.4,3.4-3.4c1.9,0,3.4,1.5,3.4,3.4
		C391.1,192,389.5,193.6,387.6,193.6z"/>
	
		<linearGradient id="SVGID_00000137098721250839828390000006145983870216534412_" gradientUnits="userSpaceOnUse" x1="588.8114" y1="725.2283" x2="29.77" y2="59.2561">
		<stop  offset="0" style="stop-color:#671111"/>
		<stop  offset="0.1997" style="stop-color:#641312"/>
		<stop  offset="0.417" style="stop-color:#591714"/>
		<stop  offset="0.6424" style="stop-color:#481B17"/>
		<stop  offset="0.872" style="stop-color:#311B1A"/>
		<stop  offset="1" style="stop-color:#20181A"/>
	</linearGradient>
	<path style="fill:url(#SVGID_00000137098721250839828390000006145983870216534412_);" d="M381.3,393.9c-0.6-2.1-1.3-4.1-2.2-6
		c-0.8-1.7-2.5-2.9-4-4.2c-8.8-8.2-15.1-17.7-15.9-30.2c-0.4-6.1-4.3-9.2-10.1-9.3c-27.2-0.1-54.5-0.1-81.7,0
		c-5.6,0-9.8,3.2-9.9,8.7c-0.3,14.2-8.3,23.7-17.9,32.9c-2.1,2-3.6,4.8-4.9,7.7c-1.3,0.1-2.3,1.1-2.3,2.5v6.4h151.4v-5.9
		C383.7,395.3,382.1,394.4,381.3,393.9z"/>
	<path class="st5" d="M304.4,97.8"/>
	<path class="st6" d="M332.9,62.5c5.1,2.5,17.7,10,19.5,24.5c0,0,1.7,6.6,0.6,13.4c0,0-2.5-10-6.6-19c-1.8-3.9-4.5-7.2-8-9.7
		c-2.1-1.5-4.8-3.2-7.5-4.4c-2.1-0.9-2.4-2.1-2.2-3.1C329.3,62.5,331.3,61.7,332.9,62.5z"/>
	<g>
		
			<linearGradient id="SVGID_00000142160206186490053650000011927418091791539632_" gradientUnits="userSpaceOnUse" x1="566.9269" y1="732.0647" x2="6.1489" y2="64.0238">
			<stop  offset="0" style="stop-color:#671111"/>
			<stop  offset="0.1997" style="stop-color:#641312"/>
			<stop  offset="0.417" style="stop-color:#591714"/>
			<stop  offset="0.6424" style="stop-color:#481B17"/>
			<stop  offset="0.872" style="stop-color:#311B1A"/>
			<stop  offset="1" style="stop-color:#20181A"/>
		</linearGradient>
		<path style="fill:url(#SVGID_00000142160206186490053650000011927418091791539632_);" d="M402.1,432h-194c-4.5,0-8.1-3.6-8.1-8.1
			v-7.4c0-4.5,3.6-8.1,8.1-8.1h194c4.5,0,8.1,3.6,8.1,8.1v7.4C410.2,428.4,406.6,432,402.1,432z"/>
		<line class="st5" x1="230.9" y1="420.2" x2="382.8" y2="420.2"/>
	</g>
</g>
</svg>
