<?xml version="1.0" encoding="utf-8"?>
<!-- Generator: Adobe Illustrator 27.2.0, SVG Export Plug-In . SVG Version: 6.00 Build 0)  -->
<svg version="1.1" id="Layer_1" xmlns="http://www.w3.org/2000/svg" xmlns:xlink="http://www.w3.org/1999/xlink" x="0px" y="0px"
	 viewBox="200 140 219 340" style="enable-background:new 0 0 612 792;" xml:space="preserve">
<style type="text/css">
	.st0{fill:#000;}
	.st1{font-family:'CormorantGaramond';}
	.st2{font-size:65.1566px;}
	.st3{fill:url(#SVGID_1_);}
	.st4{fill:none;}
	.st5{fill:url(#SVGID_00000136392449030883348030000007594078655668368527_);}
</style>
<g>
	<!-- <g>
		<g>
			<text transform="matrix(1 0 0 1 20.5347 545.9121)" class="st0 st1 st2">CHESS</text>
		</g>
		<text transform="matrix(1 0 0 1 250.5171 545.9121)" class="st0 st1 st2">AUDACITY</text>
	</g> -->
	<g>
		<linearGradient id="SVGID_1_" gradientUnits="userSpaceOnUse" x1="195.0538" y1="297.9886" x2="416.9465" y2="297.9886">
			<stop  offset="3.631285e-02" style="stop-color:#000"/>
			<stop  offset="1" style="stop-color:#000"/>
		</linearGradient>
		<path class="st3" d="M364.9,444.3c-0.6-1.3-2.2-2.4-3.6-3c-5.9-2.7-16.1-6.1-21.3-11.5h-83.9c-5.2,5.6-15.1,9.5-21.2,12.6
			c-1.5,0.8-3.1,2.2-3.6,3.7c-1.3,3.5,1,5.6,6.4,5.5c20.2-0.2,50.4-0.7,70.5-0.9c13.9-0.1,37.8-0.1,51.7-0.2
			C364.8,450.5,366.8,448.1,364.9,444.3z M408.3,217.5c-0.3-0.1-0.5-0.4-0.8-0.6c-9-7.9-18-15.7-26.9-23.7c-1.3-1.2-2.1-2.8-3.3-4.2
			c-2.3-2.7-4.4-5.6-7.1-7.8c-4.9-4-5.1-6.5-1.5-11.6c2.2-3.1,3.5-6.8,4.5-10.5c0.8-2.9-0.9-4.3-4.2-4.3c-10.5,0.1-21,0-31.5,0.2
			c-4,0.1-6.7-1.1-8.2-4.8c-1.1-2.7-2.8-4.3-5.4-1.2c-2.1,2.5-3.7,1.3-5.3-0.5c-1.2-1.4-2.1-3-3.5-4c-0.7-0.4-3.1,0.3-3.4,1
			c-2.5,5.8-2.4,5.7-8.9,4c-9.4-2.5-18.4-2.1-26.8,3.5c-4.1,2.8-8.6,5.2-13.1,7.3c-1.4,0.6-3.6-0.1-5.3-0.5
			c-1.7-0.5-3.3-1.6-5.1-2.1c-10.8-2.7-15.8-0.8-19.8,7.6c-1.8,3.8-3.6,7.6-5.8,11.2c-4.6,7.5-12.5,9.2-20.1,4.1
			c-0.6,1.7-1.5,3.3-1.7,4.9c-1.1,8.3,3.6,13.5,10.3,17.7c1.8,1.1,3.6,2.4,4.4,2.8c-2.6,5.1-4.6,9.2-6.7,13.3
			c-0.8,1.6-1.4,3.8-2.7,4.4c-3.6,1.8-7.5,2.9-12,4.6c-1.4,5.7,2.8,11.4,9.9,13c3.9,0.9,7.9,2.7,11.1,5c1.5,1.1,2.4,5,1.5,6.7
			c-2.5,4.9-5.6,9.5-9.1,13.7c-1.6,1.9-4.7,2.7-7.2,3.6c-2.8,1-5.8,1.4-8.7,2.1c1.2,2.7,2.4,5.5,3.6,8.2c0.3,0.6,0.7,1.2,1.3,1.4
			c3.2,1.6,6.4,3.5,9.8,4.4c2,0.5,4.5-0.9,6.7-1c9.9-0.2,17.1-6.4,18.4-15.7c-2.4,2.7-4.7,5.8-7.6,8.4c-4.3,3.9-11.5,5-15.8,2.6
			c-1.1-0.6-1.8-2.1-2.7-3.1c1.3-0.5,2.6-1.5,3.8-1.4c5.2,0.4,9.2-1.6,12-5.6c2-2.9,3.6-6.1,5.3-9.2c3.7-7,7.1-14.2,11.1-21.1
			c1.1-1.9,3.9-3,5.9-4.5c0.4,0.4,0.8,0.8,1.2,1.2c-3,7.1-6,14.2-9,21.3c0.5,0.2,0.9,0.3,1.4,0.5c1.9-3.7,3.4-7.7,5.8-11.1
			c2.8-3.9,6.2-7.4,9.6-10.8c0.6-0.6,2.3-0.3,3.5-0.4c-0.2,1.1-0.1,2.4-0.6,3.4c-0.6,1.5-1.9,2.7-2.5,4.1
			c-4.5,10.1-9.2,20.2-13.4,30.5c-3.7,9-9.6,15.3-20.2,17.2c2,4.7,3.5,8.7-0.9,12.3c-0.8,0.6-1.2,2-1.3,3c-0.3,4.3-2.9,5.5-7,5.8
			c-5.6,0.3-10.4,2.5-14.1,7c-5.5,6.7-5.2,14.3-4.7,22c1.1,15.5,10.8,25.6,25.5,28.6c7.9,1.6,15.8,3.4,23.5,5.9
			c2.6,0.8,4.8,3.7,6.7,5.9c3.4,4.1,6.5,8.4,9.7,12.6c0.9,1.2,2.1,2.4,2.6,3.8c1.1,3,1.6,6.2,2.9,9.1c1.4,3.1,0.7,5-1.9,7.1
			c-1.9,1.6-4.6,3.8-4.6,5.8c-0.1,2.2-0.9,4.2-2.3,6.1h81.4c-1.1-1.5-1.8-3.2-2-5c-0.2-2.5-2.9-4.8-4.5-7.2c-1-1.6-2.9-3.1-3-4.6
			c-0.3-6.4,0.6-12.5,7.2-16.3c1.6-0.9,3-2.5,4.2-4c4.5-5.8,6.6-13.4,14.5-16.5c1.4-0.5,2.7-2.2,3.2-3.6c2.4-6.7,5.7-13.5,6.6-20.4
			c1.5-12.2-3.7-23.2-9.8-33.5c-5.7-9.7-13-18.5-18.7-28.2c-6.8-11.7-10.9-24.4-9.2-38.2c0.8-6.6,2.3-8.3,9-8
			c4.4,0.2,9,0.7,13.2,1.9c6.7,2,13,5.1,19.7,7c5.5,1.5,7.7,4.4,8.9,9.6c0.5,2.4,3.9,5.3,6.5,5.9c3.1,0.7,6.7-0.7,11.6-1.5
			c-3-4.3-5.3-8.4-8.4-11.8c-3.3-3.5-5.5-7.1-4-11.6c0.6-1.9,3.1-3.2,4.8-4.7c1.1,1.6,2.3,3.2,3.2,4.9c1.6,3,2.4,6.5,4.4,9.2
			c2.3,3.1,5.4,5.7,8.5,8.1c1.4,1.1,4,1.9,5.6,1.4c2.4-0.8,4-2.5,3.8-5.8c-0.4-6.6-1.9-13.3,1.3-19.8
			C419.2,226.2,415.9,220.9,408.3,217.5z M215.4,321.9c5.9-0.1,9.7,3.6,9.7,9.3c0,4.5-5.3,9.8-9.9,9.9c-4.3,0.2-8.3-4.4-8.3-9.6
			C206.8,325.4,209.8,321.9,215.4,321.9z M267,327.8c-0.5,11.1-2.6,22.2-9.1,32c-5.1,7.8-12.7,12-22,10.4
			c-7.7-1.3-15.1-4.7-22.5-7.5c-1-0.4-1.5-2.1-2.2-3.2c1.4-0.2,2.8-0.9,4-0.7c2.6,0.6,5,1.6,7.6,2.4c18.1,5.6,29.1,0,31.8-17.8
			c2.2-14.5,2.8-29.3,4.2-43.9c1.1-11.3,2.4-22.6,3.8-33.9c0.2-1.6,1.5-3.1,2.3-4.7c0.5,0.1,1,0.2,1.5,0.3c0.2,1.6,0.7,3.3,0.7,4.9
			C267.3,286.7,267.9,307.3,267,327.8z M267,249c-7.2,8.7-10.8,18.6-11.8,29.5c-1.3,13.4-2.3,26.8-4.2,40c-1.5,10.4-2.7,21-8.3,30.4
			c-7.2,12.3-16.4,11.6-27.3,7.1c-2.9-1.2-5.3-3.5-7.9-5.3c0.3-0.6,0.5-1.1,0.8-1.7c4,0.9,8.1,1.6,12,2.7c7.4,2.2,11.8-0.1,15-6.8
			c5.3-11.2,4.7-23.4,6.6-35.2c2.2-13.4,4.4-26.8,6.9-40.1c1.7-9.2,7-16.5,14.6-22.3c1.2-0.9,2.9-1.3,5.1-1.1
			C268.1,247.2,267.7,248.2,267,249z M250.8,214.2c1.9-1,3.8-2.4,5.8-3c1.2-0.4,2.7,0.3,4.1,0.5c-0.4,1.2-0.4,2.9-1.3,3.6
			c-8.8,7.9-17.6,15.6-26.5,23.3c-3.6,3.1-7.6,5.7-14,3.1c3.5-2.4,7.1-4.7,10.7-7.1c-0.6-0.7-1.3-1.4-1.9-2.1
			c-1.6,0.9-3.4,1.6-4.8,2.7c-4,3.1-8.2,1.5-12.4,0.5c-0.7-0.2-1.6-1.6-1.5-2.1c0.3-0.8,1.4-2,2.2-2c7.1,0.2,11.2-4.3,15.5-8.6
			c7.8-7.9,15-16.5,25.7-21c5.4-2.3,11.3-3.6,17.1-4.8c2.2-0.5,4.8,0.8,7.3,2.3C267.6,203.8,257.2,205.4,250.8,214.2z M299.2,183.4
			c-5.9,1.7-11.9,3.2-17.9,4c-11.5,1.6-23.2,2.2-34.6,4.1c-4.4,0.7-8.5,3.4-12.4,5.8c-7.4,4.5-14.8,5-21,0.5c-1.4-1-2.2-2.6-3.3-4
			c0.3-0.4,0.6-0.8,0.9-1.2c1.5,0.4,3.1,0.6,4.5,1.1c5.1,1.9,9.9,1.6,14-2.1c8.4-7.5,18.7-10.1,29.8-10.3c4-0.1,8,0,12,0
			c-13.6-3.8-27.3-5.2-41.2-1.3c-0.3-0.5-0.6-1-0.9-1.6c1.8-1.5,3.3-3.9,5.3-4.2c7.6-1.4,15.4-3.2,23-3c9.4,0.3,18.7,2.7,28.1,3.8
			c3.6,0.4,7.3,0,10.9-0.3c2.5-0.3,5.2-1.6,6.3,1.7C303.9,179.8,302.5,182.5,299.2,183.4z M369.5,185.7c1.1-0.5,2.8,0.3,4.2,0.5
			c-0.2,1-0.1,2.3-0.6,3.1c-3.9,6-3.9,6.1,1.4,10.8c0.6,0.5,1,1.2,2.2,2.6c-1.9,0.7-3.3,1.7-4.2,1.4c-6.2-2.1-12.4-4.2-18.5-6.7
			c-2.7-1.1-3-3.1-0.1-4.5C358.9,190.3,364.1,187.9,369.5,185.7z M329.7,173.5c1.4,0,2.9,0.3,4.1-0.1c1.7-0.5,4-1.1,4.5-2.2
			c0.6-1.4,0.1-3.8-0.9-5.2c-1.7-2.4-4.1-4.4-7.2-7.7c3.4-0.6,5.8-1.9,7.5-1.3c8.9,3.1,16.7,7.3,18.8,17.3
			c1.1,5.6-1.9,11.7-7.4,13.7c-7,2.6-13.5,0.5-17.1-6.3c3.4,0.1,6.4-0.3,9,0.5c3.4,1,5.8,0.2,7.3-2.3c1.8-2.9,1.8-6-1.6-9.2
			c-1.4,6.7-6.2,8.6-12,8.1c-2.1-0.2-3.9-2.4-5.9-3.7C329.2,174.6,329.4,174.1,329.7,173.5z M320.8,205.2c6.5-1.9,12.9-3.6,20-1.4
			c6.7,2.1,13.9,3.8,20.9,4.2c5.9,0.3,12-1.5,18-2.3c-0.7,4.1-5.3,8.8-10.5,8.7c-6-0.1-12.1-0.8-18.1-1.7c-5.7-0.9-11.3-2.7-17-3.5
			c-3.3-0.4-6.9,0.4-10.3,0.8c-2.5,0.3-5,0.9-7.5,1.4c-0.3-0.5-0.6-1-0.9-1.5C317.1,208.2,318.7,205.9,320.8,205.2z M388.9,213.9
			c-3.1,7.8-10.1,11.4-17.9,11.9c-7.3,0.5-14.9-0.8-22.2-2.3c-10.5-2.2-20.7-6.3-31.8-5.1c-1.6,0.2-3.3-0.5-5-0.8
			c-0.1-0.6-0.2-1.1-0.3-1.7c2.9-1.1,5.8-3,8.8-3.2c5.1-0.3,10.3,0,15.4,0.8c11,1.6,21.8,4,32.8,5.4c6.7,0.8,12.2-2.4,16.5-7.5
			c0.9-1.1,2.5-1.6,3.7-2.3C388.8,210.7,389.4,212.5,388.9,213.9z"/>
		<g>
			<path class="st4" d="M257.9,426.9c-0.4,0.5-0.8,1-1.2,1.5"/>
		</g>
		
			<linearGradient id="SVGID_00000064316746266780998860000010379790521731456672_" gradientUnits="userSpaceOnUse" x1="204.9919" y1="466.3077" x2="386.6502" y2="466.3077">
			<stop  offset="3.631285e-02" style="stop-color:#000"/>
			<stop  offset="1" style="stop-color:#000"/>
		</linearGradient>
		<path style="fill:url(#SVGID_00000064316746266780998860000010379790521731456672_);" d="M386.7,478.1H205v-9.9
			c0-7.6,6.1-13.7,13.7-13.7H373c7.6,0,13.7,6.1,13.7,13.7V478.1z"/>
	</g>
</g>
</svg>
